# xmcd
#
# Track frame offsets: 
#        150
#        13175
#        32477
#        42625
#        57172
#        73690
#        88917
#        109255
#        125225
#        139900
#        157700
#
# Disc length: 2405 seconds
#
# Revision: 15
# Processed by: cddbd v1.5.2PL0 Copyright (c) Steve Scherf et al.
# Submitted via: ExactAudioCopyFreeDBPlugin 1.0
#
DISCID=9c09630b
DTITLE=Fleetwood Mac - Rumours
DYEAR=1977
DGENRE=Rock
TTITLE0=Second Hand News
TTITLE1=Dreams
TTITLE2=Never Going Back Again
TTITLE3=Don't Stop
TTITLE4=Go Your Own Way
TTITLE5=Songbird
TTITLE6=The Chain
TTITLE7=You Make Loving Fun
TTITLE8=I Don't Want to Know
TTITLE9=Oh Daddy
TTITLE10=Gold Dust Woman
EXTD=
EXTT0=
EXTT1=
EXTT2=
EXTT3=
EXTT4=
EXTT5=
EXTT6=
EXTT7=
EXTT8=
EXTT9=
EXTT10=
PLAYORDER=
